<mxfile host="app.diagrams.net" modified="2020-04-09T10:22:54.466Z" agent="5.0 (Windows)" etag="tRpu0rDIgGgH7jAwWglZ" version="12.9.10" type="github">
  <diagram id="dxxjljuM5NoMf0PUY4K2" name="Page-1">
    <mxGraphModel dx="1422" dy="769" grid="1" gridSize="10" guides="1" tooltips="1" connect="1" arrows="1" fold="1" page="1" pageScale="1" pageWidth="827" pageHeight="1169" math="0" shadow="0">
      <root>
        <mxCell id="0" />
        <mxCell id="1" parent="0" />
        <mxCell id="aDlBdVaL5Bm-pk_XOpl--4" style="edgeStyle=orthogonalEdgeStyle;rounded=0;orthogonalLoop=1;jettySize=auto;html=1;entryX=0.558;entryY=0.017;entryDx=0;entryDy=0;entryPerimeter=0;" edge="1" parent="1" source="aDlBdVaL5Bm-pk_XOpl--1" target="aDlBdVaL5Bm-pk_XOpl--3">
          <mxGeometry relative="1" as="geometry" />
        </mxCell>
        <mxCell id="BQwPOW_z-aIO_5TYj0Qk-1" value="This" style="rounded=0;whiteSpace=wrap;html=1;" vertex="1" parent="1">
          <mxGeometry x="100" y="90" width="120" height="60" as="geometry" />
        </mxCell>
        <mxCell id="aDlBdVaL5Bm-pk_XOpl--1" value="Test" style="rounded=1;whiteSpace=wrap;html=1;" vertex="1" parent="1">
          <mxGeometry x="270" y="120" width="120" height="60" as="geometry" />
        </mxCell>
        <mxCell id="BQwPOW_z-aIO_5TYj0Qk-2" value="" style="endArrow=classic;html=1;exitX=1;exitY=0.5;exitDx=0;exitDy=0;entryX=0;entryY=0.5;entryDx=0;entryDy=0;" edge="1" parent="1" source="BQwPOW_z-aIO_5TYj0Qk-1" target="BQwPOW_z-aIO_5TYj0Qk-3">
          <mxGeometry width="50" height="50" relative="1" as="geometry">
            <mxPoint x="390" y="430" as="sourcePoint" />
            <mxPoint x="520" y="120" as="targetPoint" />
            <Array as="points" />
          </mxGeometry>
        </mxCell>
        <mxCell id="aDlBdVaL5Bm-pk_XOpl--2" value="Text" style="text;html=1;align=center;verticalAlign=middle;resizable=0;points=[];autosize=1;" vertex="1" parent="1">
          <mxGeometry x="285" y="270" width="40" height="20" as="geometry" />
        </mxCell>
        <mxCell id="BQwPOW_z-aIO_5TYj0Qk-3" value="That" style="rounded=0;whiteSpace=wrap;html=1;" vertex="1" parent="1">
          <mxGeometry x="520" y="90" width="120" height="60" as="geometry" />
        </mxCell>
        <mxCell id="aDlBdVaL5Bm-pk_XOpl--3" value="aaaa" style="rounded=0;whiteSpace=wrap;html=1;" vertex="1" parent="1">
          <mxGeometry x="430" y="340" width="120" height="60" as="geometry" />
        </mxCell>
      </root>
    </mxGraphModel>
  </diagram>
</mxfile>
